<?xml version="1.0" encoding="utf-8"?>
<!-- Generator: Adobe Illustrator 16.0.0, SVG Export Plug-In . SVG Version: 6.00 Build 0)  -->
<!DOCTYPE svg PUBLIC "-//W3C//DTD SVG 1.1//EN" "http://www.w3.org/Graphics/SVG/1.1/DTD/svg11.dtd">
<svg version="1.1" xmlns="http://www.w3.org/2000/svg" xmlns:xlink="http://www.w3.org/1999/xlink" x="0px" y="0px"
	 width="320.277px" height="320.059px" viewBox="0 0 320.277 320.059" enable-background="new 0 0 320.277 320.059"
	 xml:space="preserve">
<g id="Layer_1">
</g>
<g id="Layer_3">
</g>
<g id="Layer_4">
	<g>
		<g>
			<linearGradient id="SVGID_1_" gradientUnits="userSpaceOnUse" x1="160.1387" y1="179.1357" x2="160.1387" y2="49.5334">
				<stop  offset="0" style="stop-color:#E8BE55"/>
				<stop  offset="1" style="stop-color:#E48449"/>
			</linearGradient>
			<path fill="url(#SVGID_1_)" d="M223.458,129.021c-0.553-2.836-1.305-5.307-2.295-7.398l-0.025-0.051l-0.025-0.055
				c-1.391-2.85-3.158-5.377-5.287-7.57h0.008c-0.008-0.004-0.01-0.006-0.016-0.012c-2.057-2.117-5.48-4.68-9.191-6.693
				c-11.092-6.018-14.023-11.359-14.186-24.389c-0.135-10.627,8.832-18.838,12.699-25.24c5.402-8.939,4.51-19.398,4.51-25.896
				c0-5.406-1.535-10.525-4.221-15.15l-0.045,0.094c0.068,0.912,0.176,1.816,0.176,2.74c0,11.914-9.752,23.514-16.602,28.131
				c-8.613,5.799-22.363,12.244-28.082,19.041c-6.543,7.768-7.918,13.777-12.773,27.01c-2.113,5.76-4.598,10.02-7.357,12.76
				c-3.568,3.545-7.594,4.539-11.859,2.922c-1.232-0.469-1.82-1.463-1.973-2.881c-0.346-3.225,1.59-8.686,3.502-15.385
				c2.475-8.699-1.855-16.012-6.369-23.926c1.051,13.91-6.156,26.979-16.863,36.752c-2.051,1.867-3.744,4.443-5.391,6.838
				c-3.871,4.65-6.455,9.869-6.455,28.08v64.801c0,17.893,14.508,32.398,32.4,32.398h64.805c17.893,0,32.398-14.506,32.398-32.398
				v-64.801C224.94,135.357,224.419,132.092,223.458,129.021z"/>
			<path fill="#FAF4EA" d="M212.345,197.246c0,14.416-11.686,26.102-26.104,26.102h-52.205c-14.414,0-26.102-11.686-26.102-26.102
				v-52.207c0-14.416,11.688-26.102,26.102-26.102h52.205c14.418,0,26.104,11.686,26.104,26.102V197.246z"/>
			<g>
				<path fill="#91204D" d="M191.519,145.605c-2.707-1.469-5.938-2.205-9.682-2.205c-3.207,0-6.137,0.676-8.777,2.029
					c-2.646,1.357-5.119,3.438-7.426,6.248c-1.605-2.777-3.645-4.85-6.121-6.223c-2.477-1.371-5.436-2.055-8.879-2.055
					c-3.312,0-6.322,0.668-9.033,2.006c-2.709,1.338-5.248,3.43-7.621,6.271v-1.305c0-2.209-0.631-3.939-1.887-5.191
					c-1.25-1.256-2.812-1.883-4.691-1.883c-1.934,0-3.5,0.668-4.686,2.008c-1.188,1.336-1.783,3.295-1.783,5.869v39.18
					c0,2.844,0.66,4.992,1.98,6.447c1.32,1.453,3.02,2.182,5.098,2.182c2.102,0,3.803-0.729,5.088-2.182
					c1.285-1.455,1.932-3.604,1.932-6.447v-18.512c0-5.754,0.711-10.166,2.133-13.242c1.42-3.08,4.375-4.617,8.855-4.617
					c2.24,0,3.879,0.609,4.918,1.83c1.033,1.221,1.668,2.787,1.902,4.693s0.354,4.58,0.354,8.025v21.822
					c0,2.877,0.639,5.035,1.93,6.473c1.287,1.438,2.969,2.156,5.043,2.156c2.141,0,3.863-0.719,5.166-2.156
					c1.307-1.438,1.955-3.596,1.955-6.473v-18.209c0-5.855,0.502-9.936,1.506-12.242c0.904-1.807,2.166-3.242,3.789-4.314
					c1.623-1.068,3.336-1.605,5.143-1.605c2.238,0,3.912,0.602,5.016,1.807c1.104,1.203,1.783,2.691,2.033,4.463
					c0.248,1.777,0.375,4.135,0.375,7.074v23.027c0,2.844,0.662,4.992,1.98,6.447c1.324,1.453,3.02,2.182,5.096,2.182
					c2.139,0,3.861-0.719,5.164-2.156c1.307-1.438,1.959-3.596,1.959-6.473v-26.738c0-5.318-0.584-9.215-1.756-11.689
					C196.251,149.188,194.229,147.08,191.519,145.605z"/>
			</g>
		</g>
		<g>
			<path fill="#91204D" d="M30.714,281.441v8.496c0,1.344-0.305,2.35-0.913,3.021c-0.608,0.67-1.412,1.006-2.411,1.006
				c-0.968,0-1.752-0.336-2.353-1.006c-0.601-0.672-0.9-1.678-0.9-3.021v-10.182c0-1.607-0.056-2.855-0.164-3.744
				c-0.109-0.891-0.406-1.619-0.89-2.189c-0.484-0.57-1.249-0.854-2.294-0.854c-2.092,0-3.469,0.717-4.132,2.152
				s-0.994,3.496-0.994,6.18v8.637c0,1.328-0.301,2.33-0.901,3.01c-0.602,0.678-1.393,1.018-2.376,1.018
				c-0.968,0-1.76-0.34-2.376-1.018c-0.616-0.68-0.925-1.682-0.925-3.01v-18.281c0-1.201,0.277-2.113,0.831-2.738
				c0.554-0.623,1.283-0.936,2.188-0.936c0.874,0,1.604,0.293,2.188,0.877c0.586,0.586,0.878,1.393,0.878,2.424v0.607
				c1.108-1.326,2.294-2.301,3.559-2.926c1.264-0.623,2.668-0.936,4.213-0.936c1.607,0,2.988,0.32,4.144,0.959
				c1.154,0.641,2.106,1.607,2.855,2.902c1.077-1.311,2.231-2.281,3.465-2.914c1.232-0.631,2.598-0.947,4.096-0.947
				c1.748,0,3.254,0.344,4.518,1.029c1.265,0.688,2.208,1.67,2.833,2.949c0.546,1.156,0.819,2.973,0.819,5.455v12.475
				c0,1.344-0.305,2.35-0.913,3.021c-0.608,0.67-1.413,1.006-2.411,1.006c-0.968,0-1.76-0.34-2.376-1.018
				c-0.616-0.68-0.925-1.682-0.925-3.01v-10.744c0-1.373-0.059-2.473-0.176-3.299c-0.116-0.828-0.433-1.521-0.947-2.084
				c-0.516-0.562-1.296-0.842-2.341-0.842c-0.843,0-1.643,0.248-2.399,0.748s-1.346,1.17-1.768,2.014
				C30.948,276.807,30.714,278.711,30.714,281.441z"/>
			<path fill="#91204D" d="M67.931,290.359c-1.545,1.203-3.04,2.104-4.482,2.703c-1.444,0.602-3.063,0.902-4.857,0.902
				c-1.639,0-3.078-0.324-4.319-0.971c-1.24-0.648-2.196-1.525-2.867-2.635c-0.671-1.107-1.006-2.309-1.006-3.604
				c0-1.748,0.554-3.238,1.661-4.473c1.108-1.232,2.63-2.059,4.564-2.48c0.406-0.094,1.412-0.305,3.02-0.633
				c1.607-0.326,2.985-0.627,4.132-0.9c1.147-0.273,2.392-0.604,3.733-0.994c-0.078-1.686-0.417-2.922-1.018-3.711
				c-0.602-0.787-1.846-1.182-3.734-1.182c-1.623,0-2.844,0.227-3.663,0.678c-0.819,0.453-1.521,1.133-2.106,2.037
				c-0.585,0.906-0.999,1.502-1.24,1.791c-0.242,0.289-0.761,0.434-1.557,0.434c-0.719,0-1.339-0.23-1.861-0.691
				c-0.523-0.459-0.784-1.049-0.784-1.768c0-1.123,0.397-2.215,1.193-3.277c0.796-1.061,2.037-1.934,3.723-2.621
				c1.685-0.686,3.783-1.029,6.296-1.029c2.81,0,5.018,0.332,6.625,0.994c1.606,0.664,2.742,1.713,3.405,3.148
				s0.995,3.34,0.995,5.711c0,1.498-0.004,2.771-0.012,3.816s-0.02,2.209-0.035,3.488c0,1.201,0.199,2.453,0.597,3.756
				c0.398,1.303,0.598,2.143,0.598,2.518c0,0.654-0.309,1.252-0.925,1.789c-0.617,0.539-1.315,0.809-2.095,0.809
				c-0.656,0-1.304-0.309-1.943-0.926C69.327,292.424,68.648,291.529,67.931,290.359z M67.509,281.113
				c-0.937,0.344-2.298,0.707-4.084,1.09c-1.787,0.381-3.024,0.662-3.711,0.842s-1.342,0.531-1.966,1.053
				c-0.624,0.523-0.937,1.252-0.937,2.189c0,0.967,0.366,1.791,1.101,2.469c0.733,0.68,1.692,1.02,2.879,1.02
				c1.264,0,2.431-0.277,3.499-0.832c1.069-0.553,1.854-1.268,2.353-2.141c0.577-0.969,0.866-2.561,0.866-4.775V281.113z"/>
			<path fill="#91204D" d="M86.178,284.742v5.336c0,1.297-0.304,2.268-0.912,2.916c-0.609,0.646-1.382,0.971-2.317,0.971
				c-0.921,0-1.678-0.328-2.271-0.982c-0.594-0.656-0.89-1.623-0.89-2.904v-17.789c0-2.871,1.037-4.307,3.113-4.307
				c1.061,0,1.825,0.336,2.294,1.006c0.468,0.672,0.726,1.662,0.772,2.973c0.764-1.311,1.548-2.301,2.353-2.973
				c0.803-0.67,1.876-1.006,3.218-1.006c1.343,0,2.646,0.336,3.909,1.006c1.265,0.672,1.896,1.561,1.896,2.668
				c0,0.781-0.27,1.426-0.808,1.932c-0.538,0.508-1.12,0.762-1.744,0.762c-0.233,0-0.8-0.145-1.697-0.434s-1.688-0.434-2.375-0.434
				c-0.937,0-1.701,0.246-2.294,0.738c-0.594,0.49-1.054,1.221-1.382,2.188c-0.327,0.969-0.554,2.119-0.679,3.453
				S86.178,282.822,86.178,284.742z"/>
			<path fill="#91204D" d="M121.455,285.607c0,1.764-0.43,3.273-1.287,4.529c-0.858,1.258-2.127,2.209-3.804,2.857
				c-1.678,0.646-3.719,0.971-6.121,0.971c-2.294,0-4.261-0.352-5.899-1.053c-1.639-0.703-2.848-1.58-3.628-2.635
				c-0.78-1.053-1.171-2.109-1.171-3.172c0-0.701,0.25-1.303,0.749-1.801c0.5-0.5,1.132-0.75,1.896-0.75
				c0.671,0,1.186,0.164,1.545,0.492c0.358,0.326,0.702,0.787,1.03,1.381c0.655,1.139,1.439,1.988,2.353,2.551
				c0.912,0.562,2.157,0.844,3.733,0.844c1.279,0,2.329-0.285,3.148-0.855c0.819-0.568,1.229-1.221,1.229-1.955
				c0-1.123-0.426-1.941-1.275-2.457c-0.851-0.516-2.251-1.006-4.202-1.475c-2.2-0.547-3.991-1.119-5.372-1.721
				c-1.381-0.6-2.485-1.393-3.312-2.375c-0.827-0.984-1.24-2.193-1.24-3.629c0-1.279,0.382-2.488,1.147-3.629
				c0.764-1.139,1.892-2.047,3.382-2.727c1.49-0.678,3.289-1.018,5.396-1.018c1.654,0,3.141,0.172,4.459,0.514
				c1.319,0.344,2.419,0.805,3.301,1.383c0.882,0.576,1.553,1.217,2.013,1.918c0.461,0.703,0.691,1.391,0.691,2.061
				c0,0.734-0.246,1.334-0.737,1.803c-0.492,0.467-1.19,0.701-2.096,0.701c-0.655,0-1.213-0.188-1.674-0.561
				c-0.46-0.375-0.986-0.938-1.58-1.686c-0.483-0.625-1.053-1.123-1.708-1.498s-1.545-0.562-2.669-0.562
				c-1.155,0-2.114,0.246-2.879,0.738c-0.765,0.49-1.147,1.104-1.147,1.836c0,0.672,0.281,1.223,0.843,1.65
				c0.562,0.43,1.318,0.785,2.271,1.066c0.952,0.279,2.263,0.623,3.933,1.029c1.981,0.484,3.601,1.061,4.857,1.732
				c1.256,0.672,2.208,1.463,2.855,2.375C121.131,283.396,121.455,284.438,121.455,285.607z"/>
			<path fill="#91204D" d="M131.29,262.363v9.48c0.811-0.936,1.603-1.678,2.375-2.223c0.772-0.547,1.627-0.957,2.563-1.229
				c0.937-0.273,1.943-0.41,3.02-0.41c1.623,0,3.062,0.344,4.319,1.029c1.256,0.688,2.243,1.686,2.961,2.996
				c0.452,0.766,0.757,1.619,0.913,2.562c0.155,0.945,0.233,2.033,0.233,3.266v12.242c0,1.281-0.292,2.248-0.878,2.904
				c-0.585,0.654-1.361,0.982-2.329,0.982c-2.106,0-3.159-1.295-3.159-3.887v-10.791c0-2.043-0.305-3.615-0.913-4.717
				c-0.608-1.1-1.764-1.648-3.465-1.648c-1.139,0-2.165,0.322-3.078,0.971s-1.596,1.533-2.048,2.656
				c-0.344,0.953-0.515,2.645-0.515,5.08v8.449c0,1.266-0.285,2.229-0.854,2.893c-0.57,0.662-1.362,0.994-2.376,0.994
				c-2.106,0-3.16-1.295-3.16-3.887v-27.715c0-1.295,0.276-2.266,0.831-2.914c0.554-0.646,1.33-0.971,2.329-0.971
				c1.014,0,1.806,0.328,2.376,0.982C131.005,260.117,131.29,261.084,131.29,262.363z"/>
			<path fill="#91204D" d="M174.914,281.441v8.496c0,1.344-0.305,2.35-0.913,3.021c-0.608,0.67-1.412,1.006-2.411,1.006
				c-0.968,0-1.752-0.336-2.353-1.006c-0.601-0.672-0.9-1.678-0.9-3.021v-10.182c0-1.607-0.056-2.855-0.164-3.744
				c-0.109-0.891-0.406-1.619-0.89-2.189c-0.484-0.57-1.249-0.854-2.294-0.854c-2.092,0-3.469,0.717-4.132,2.152
				s-0.994,3.496-0.994,6.18v8.637c0,1.328-0.301,2.33-0.901,3.01c-0.602,0.678-1.393,1.018-2.376,1.018
				c-0.968,0-1.76-0.34-2.376-1.018c-0.616-0.68-0.925-1.682-0.925-3.01v-18.281c0-1.201,0.277-2.113,0.831-2.738
				c0.554-0.623,1.283-0.936,2.188-0.936c0.874,0,1.604,0.293,2.188,0.877c0.586,0.586,0.878,1.393,0.878,2.424v0.607
				c1.108-1.326,2.294-2.301,3.559-2.926c1.264-0.623,2.668-0.936,4.213-0.936c1.607,0,2.988,0.32,4.144,0.959
				c1.154,0.641,2.106,1.607,2.855,2.902c1.077-1.311,2.231-2.281,3.465-2.914c1.232-0.631,2.598-0.947,4.096-0.947
				c1.748,0,3.254,0.344,4.518,1.029c1.265,0.688,2.208,1.67,2.833,2.949c0.546,1.156,0.819,2.973,0.819,5.455v12.475
				c0,1.344-0.305,2.35-0.913,3.021c-0.608,0.67-1.413,1.006-2.411,1.006c-0.968,0-1.76-0.34-2.376-1.018
				c-0.616-0.68-0.925-1.682-0.925-3.01v-10.744c0-1.373-0.059-2.473-0.176-3.299c-0.116-0.828-0.433-1.521-0.947-2.084
				c-0.516-0.562-1.296-0.842-2.341-0.842c-0.843,0-1.643,0.248-2.399,0.748s-1.346,1.17-1.768,2.014
				C175.148,276.807,174.914,278.711,174.914,281.441z"/>
			<path fill="#91204D" d="M213.479,282.541H200.98c0.015,1.451,0.308,2.732,0.878,3.84c0.569,1.107,1.326,1.943,2.271,2.504
				c0.943,0.562,1.985,0.844,3.125,0.844c0.764,0,1.463-0.09,2.095-0.27s1.244-0.461,1.837-0.844
				c0.594-0.381,1.14-0.791,1.639-1.229c0.5-0.436,1.147-1.029,1.943-1.779c0.327-0.281,0.796-0.42,1.404-0.42
				c0.655,0,1.186,0.18,1.592,0.537c0.405,0.359,0.608,0.867,0.608,1.521c0,0.578-0.227,1.252-0.679,2.025
				c-0.453,0.771-1.136,1.514-2.048,2.223c-0.913,0.711-2.061,1.301-3.441,1.768c-1.381,0.469-2.969,0.703-4.764,0.703
				c-4.104,0-7.295-1.17-9.573-3.512c-2.278-2.34-3.418-5.516-3.418-9.527c0-1.887,0.281-3.639,0.843-5.254s1.381-3,2.458-4.156
				c1.077-1.154,2.403-2.039,3.979-2.656c1.576-0.615,3.323-0.924,5.243-0.924c2.496,0,4.639,0.525,6.426,1.58
				c1.786,1.053,3.125,2.414,4.014,4.084c0.89,1.67,1.335,3.371,1.335,5.104c0,1.607-0.461,2.648-1.382,3.125
				S215.149,282.541,213.479,282.541z M200.98,278.914h11.587c-0.156-2.186-0.746-3.82-1.768-4.904
				c-1.022-1.084-2.368-1.627-4.038-1.627c-1.592,0-2.898,0.551-3.921,1.65C201.819,275.133,201.198,276.76,200.98,278.914z"/>
			<path fill="#91204D" d="M224.131,290.078v-27.715c0-1.279,0.284-2.246,0.854-2.902c0.569-0.654,1.338-0.982,2.306-0.982
				c0.967,0,1.747,0.324,2.341,0.971c0.593,0.648,0.889,1.619,0.889,2.914v27.715c0,1.297-0.3,2.268-0.9,2.916
				c-0.602,0.646-1.378,0.971-2.329,0.971c-0.937,0-1.697-0.336-2.282-1.006C224.423,292.287,224.131,291.328,224.131,290.078z"/>
			<path fill="#91204D" d="M237.122,290.078v-27.715c0-1.279,0.284-2.246,0.854-2.902c0.569-0.654,1.338-0.982,2.306-0.982
				c0.967,0,1.747,0.324,2.341,0.971c0.593,0.648,0.889,1.619,0.889,2.914v27.715c0,1.297-0.3,2.268-0.9,2.916
				c-0.602,0.646-1.378,0.971-2.329,0.971c-0.937,0-1.697-0.336-2.282-1.006C237.414,292.287,237.122,291.328,237.122,290.078z"/>
			<path fill="#91204D" d="M273.7,280.973c0,1.904-0.297,3.66-0.89,5.268c-0.594,1.607-1.451,2.988-2.575,4.143
				c-1.123,1.156-2.466,2.041-4.026,2.656c-1.561,0.617-3.315,0.926-5.267,0.926c-1.935,0-3.675-0.312-5.22-0.938
				c-1.545-0.623-2.883-1.516-4.015-2.68c-1.132-1.162-1.989-2.535-2.574-4.119c-0.586-1.584-0.878-3.336-0.878-5.256
				c0-1.934,0.296-3.705,0.89-5.312c0.593-1.607,1.442-2.98,2.551-4.121c1.108-1.139,2.45-2.016,4.026-2.633
				c1.576-0.615,3.315-0.924,5.22-0.924c1.935,0,3.69,0.312,5.267,0.936c1.576,0.625,2.927,1.514,4.05,2.668
				c1.124,1.156,1.978,2.529,2.563,4.121C273.407,277.299,273.7,279.055,273.7,280.973z M267.286,280.973
				c0-2.605-0.573-4.635-1.721-6.086c-1.146-1.451-2.688-2.176-4.623-2.176c-1.248,0-2.349,0.324-3.301,0.971
				c-0.951,0.648-1.685,1.604-2.2,2.867c-0.515,1.264-0.772,2.738-0.772,4.424c0,1.67,0.254,3.129,0.761,4.377
				c0.507,1.25,1.232,2.205,2.178,2.869c0.943,0.662,2.056,0.994,3.335,0.994c1.935,0,3.477-0.729,4.623-2.189
				C266.713,285.564,267.286,283.549,267.286,280.973z"/>
			<path fill="#91204D" d="M282.425,271.961l4.166,14.279l3.792-13.271c0.406-1.391,0.706-2.338,0.901-2.846
				c0.195-0.506,0.562-0.99,1.101-1.451c0.538-0.459,1.275-0.689,2.212-0.689c0.951,0,1.696,0.23,2.235,0.689
				c0.538,0.461,0.916,0.961,1.135,1.498c0.219,0.539,0.523,1.473,0.913,2.799l3.792,13.271l4.214-14.279
				c0.28-1.029,0.507-1.775,0.679-2.234c0.171-0.461,0.46-0.867,0.866-1.219c0.405-0.35,0.99-0.525,1.755-0.525
				s1.429,0.266,1.99,0.795c0.562,0.531,0.843,1.156,0.843,1.873c0,0.656-0.242,1.646-0.726,2.973l-5.221,15.309
				c-0.452,1.295-0.804,2.232-1.053,2.809c-0.25,0.578-0.644,1.094-1.183,1.545c-0.538,0.453-1.275,0.68-2.212,0.68
				c-0.968,0-1.729-0.242-2.282-0.727c-0.554-0.482-0.964-1.076-1.229-1.779c-0.266-0.701-0.555-1.613-0.866-2.738l-3.651-12.453
				l-3.535,12.453c-0.468,1.732-0.976,3.039-1.521,3.922c-0.546,0.881-1.506,1.322-2.879,1.322c-0.702,0-1.299-0.137-1.791-0.41
				c-0.491-0.273-0.9-0.662-1.229-1.17s-0.617-1.107-0.866-1.803c-0.25-0.693-0.444-1.244-0.585-1.65l-5.173-15.309
				c-0.516-1.436-0.772-2.426-0.772-2.973c0-0.686,0.272-1.303,0.819-1.85c0.546-0.545,1.217-0.818,2.013-0.818
				c1.061,0,1.779,0.301,2.153,0.9C281.605,269.484,282.003,270.51,282.425,271.961z"/>
		</g>
	</g>
</g>
<g id="Layer_2" display="none">
</g>
</svg>
