<?xml version="1.0" encoding="utf-8"?>
<!-- Generator: Adobe Illustrator 16.0.0, SVG Export Plug-In . SVG Version: 6.00 Build 0)  -->
<!DOCTYPE svg PUBLIC "-//W3C//DTD SVG 1.1//EN" "http://www.w3.org/Graphics/SVG/1.1/DTD/svg11.dtd">
<svg version="1.1" xmlns="http://www.w3.org/2000/svg" xmlns:xlink="http://www.w3.org/1999/xlink" x="0px" y="0px" width="686px"
	 height="141.793px" viewBox="0 0 686 141.793" enable-background="new 0 0 686 141.793" xml:space="preserve">
<g id="Layer_1">
</g>
<g id="Layer_3">
</g>
<g id="Layer_4">
	<g>
		<path fill="#91204D" d="M63.686,82.083v18.209c0,2.877-0.652,5.033-1.957,6.471s-3.027,2.157-5.166,2.157
			c-2.074,0-3.756-0.72-5.043-2.157s-1.93-3.594-1.93-6.471V78.471c0-3.443-0.119-6.119-0.352-8.025
			c-0.234-1.906-0.871-3.47-1.906-4.69c-1.037-1.221-2.676-1.831-4.916-1.831c-4.482,0-7.434,1.539-8.854,4.615
			c-1.422,3.077-2.133,7.491-2.133,13.243v18.51c0,2.843-0.645,4.991-1.932,6.446c-1.287,1.454-2.984,2.182-5.09,2.182
			c-2.074,0-3.771-0.728-5.092-2.182c-1.322-1.455-1.982-3.604-1.982-6.446V61.115c0-2.575,0.594-4.531,1.781-5.869
			s2.75-2.007,4.689-2.007c1.873,0,3.438,0.627,4.691,1.881s1.881,2.985,1.881,5.192v1.304c2.373-2.842,4.916-4.933,7.625-6.271
			c2.709-1.337,5.719-2.006,9.029-2.006c3.443,0,6.402,0.686,8.879,2.057c2.475,1.371,4.514,3.444,6.119,6.22
			c2.309-2.809,4.781-4.891,7.424-6.245s5.568-2.031,8.779-2.031c3.744,0,6.973,0.735,9.682,2.207s4.73,3.579,6.068,6.32
			c1.172,2.476,1.756,6.371,1.756,11.688v26.736c0,2.877-0.65,5.033-1.955,6.471s-3.027,2.157-5.168,2.157
			c-2.074,0-3.77-0.728-5.092-2.182c-1.32-1.455-1.98-3.604-1.98-6.446V77.268c0-2.942-0.125-5.301-0.377-7.073
			c-0.25-1.772-0.928-3.261-2.031-4.465s-2.775-1.806-5.016-1.806c-1.807,0-3.52,0.535-5.143,1.605
			c-1.621,1.07-2.885,2.508-3.787,4.313C64.188,72.15,63.686,76.231,63.686,82.083z"/>
		<path fill="#91204D" d="M143.439,101.195c-3.311,2.575-6.514,4.507-9.607,5.794c-3.094,1.286-6.562,1.931-10.408,1.931
			c-3.512,0-6.596-0.694-9.256-2.082c-2.658-1.387-4.707-3.268-6.145-5.643c-1.438-2.374-2.156-4.949-2.156-7.726
			c0-3.745,1.186-6.938,3.561-9.581c2.375-2.642,5.635-4.414,9.783-5.317c0.869-0.2,3.025-0.652,6.471-1.354
			c3.443-0.702,6.395-1.346,8.854-1.931c2.457-0.585,5.125-1.296,8-2.132c-0.166-3.612-0.895-6.262-2.182-7.951
			c-1.287-1.688-3.955-2.533-8-2.533c-3.479,0-6.096,0.485-7.852,1.455s-3.26,2.425-4.514,4.363c-1.254,1.94-2.141,3.22-2.66,3.838
			c-0.518,0.619-1.629,0.928-3.334,0.928c-1.539,0-2.869-0.493-3.988-1.479c-1.121-0.986-1.682-2.249-1.682-3.787
			c0-2.408,0.854-4.748,2.559-7.023c1.705-2.273,4.365-4.146,7.977-5.618c3.611-1.471,8.109-2.207,13.494-2.207
			c6.02,0,10.75,0.711,14.195,2.132c3.443,1.422,5.877,3.671,7.299,6.747c1.422,3.077,2.133,7.157,2.133,12.24
			c0,3.21-0.01,5.937-0.025,8.176c-0.018,2.241-0.043,4.733-0.076,7.475c0,2.575,0.426,5.26,1.279,8.052s1.279,4.59,1.279,5.392
			c0,1.405-0.66,2.685-1.98,3.838c-1.322,1.153-2.818,1.73-4.49,1.73c-1.404,0-2.793-0.66-4.164-1.981
			C146.432,105.618,144.977,103.703,143.439,101.195z M142.535,81.381c-2.006,0.735-4.924,1.514-8.752,2.332
			c-3.83,0.82-6.48,1.422-7.951,1.807c-1.473,0.385-2.877,1.137-4.215,2.257c-1.338,1.121-2.006,2.684-2.006,4.69
			c0,2.074,0.785,3.837,2.357,5.292s3.629,2.183,6.17,2.183c2.709,0,5.209-0.594,7.5-1.781c2.291-1.187,3.971-2.717,5.041-4.59
			c1.236-2.073,1.855-5.484,1.855-10.233V81.381z"/>
		<path fill="#91204D" d="M182.545,89.156v11.437c0,2.776-0.652,4.858-1.957,6.245c-1.305,1.388-2.959,2.082-4.965,2.082
			c-1.975,0-3.596-0.702-4.867-2.106c-1.271-1.405-1.906-3.478-1.906-6.221V62.469c0-6.152,2.225-9.229,6.672-9.229
			c2.273,0,3.912,0.72,4.916,2.157s1.555,3.562,1.656,6.37c1.637-2.809,3.318-4.933,5.041-6.37s4.021-2.157,6.896-2.157
			c2.877,0,5.67,0.72,8.377,2.157c2.709,1.438,4.064,3.344,4.064,5.719c0,1.672-0.578,3.052-1.73,4.138
			c-1.154,1.088-2.4,1.631-3.738,1.631c-0.502,0-1.713-0.309-3.637-0.929c-1.924-0.618-3.619-0.928-5.092-0.928
			c-2.006,0-3.645,0.527-4.916,1.58c-1.27,1.054-2.256,2.617-2.959,4.69c-0.701,2.074-1.188,4.54-1.455,7.399
			S182.545,85.043,182.545,89.156z"/>
		<path fill="#91204D" d="M258.143,91.012c0,3.779-0.92,7.016-2.76,9.707c-1.84,2.692-4.557,4.732-8.15,6.119
			c-3.596,1.388-7.969,2.082-13.119,2.082c-4.914,0-9.129-0.752-12.641-2.257s-6.104-3.387-7.775-5.644
			c-1.672-2.258-2.508-4.522-2.508-6.797c0-1.505,0.535-2.792,1.605-3.863c1.07-1.069,2.424-1.604,4.062-1.604
			c1.438,0,2.541,0.351,3.311,1.053c0.77,0.703,1.506,1.689,2.209,2.96c1.404,2.441,3.084,4.264,5.041,5.468
			c1.955,1.204,4.623,1.806,8,1.806c2.742,0,4.992-0.609,6.748-1.831c1.756-1.22,2.633-2.616,2.633-4.188
			c0-2.407-0.912-4.163-2.734-5.267s-4.824-2.157-9.004-3.16c-4.715-1.171-8.553-2.399-11.512-3.688
			c-2.961-1.287-5.326-2.984-7.098-5.092c-1.773-2.106-2.66-4.697-2.66-7.774c0-2.742,0.82-5.334,2.459-7.775
			s4.055-4.39,7.248-5.845c3.193-1.454,7.049-2.182,11.562-2.182c3.545,0,6.73,0.368,9.557,1.104
			c2.826,0.736,5.184,1.723,7.072,2.96s3.328,2.608,4.314,4.113s1.48,2.977,1.48,4.414c0,1.572-0.527,2.859-1.58,3.862
			c-1.055,1.004-2.551,1.505-4.49,1.505c-1.404,0-2.602-0.401-3.586-1.204c-0.988-0.802-2.117-2.006-3.387-3.611
			c-1.037-1.337-2.258-2.408-3.662-3.21c-1.404-0.803-3.311-1.204-5.719-1.204c-2.475,0-4.531,0.526-6.17,1.58
			s-2.457,2.366-2.457,3.938c0,1.438,0.602,2.617,1.805,3.536c1.205,0.921,2.826,1.681,4.865,2.283
			c2.041,0.602,4.85,1.338,8.428,2.207c4.248,1.037,7.717,2.274,10.41,3.712c2.691,1.438,4.73,3.135,6.119,5.092
			C257.447,86.271,258.143,88.504,258.143,91.012z"/>
		<path fill="#91204D" d="M279.221,41.2v20.315c1.738-2.006,3.436-3.594,5.09-4.765c1.656-1.171,3.486-2.049,5.494-2.634
			c2.006-0.585,4.164-0.878,6.471-0.878c3.479,0,6.562,0.736,9.256,2.207c2.691,1.472,4.807,3.612,6.346,6.421
			c0.969,1.639,1.621,3.47,1.955,5.493s0.502,4.356,0.502,6.997v26.235c0,2.743-0.627,4.815-1.881,6.221
			c-1.254,1.404-2.918,2.106-4.992,2.106c-4.514,0-6.771-2.775-6.771-8.327V77.468c0-4.381-0.652-7.75-1.957-10.107
			c-1.303-2.358-3.779-3.537-7.424-3.537c-2.441,0-4.639,0.694-6.596,2.082s-3.42,3.286-4.389,5.693
			c-0.736,2.04-1.104,5.669-1.104,10.886v18.108c0,2.709-0.611,4.774-1.832,6.195s-2.918,2.132-5.092,2.132
			c-4.514,0-6.771-2.775-6.771-8.327V41.2c0-2.775,0.594-4.857,1.781-6.245c1.186-1.388,2.85-2.082,4.99-2.082
			c2.174,0,3.871,0.702,5.092,2.106C278.609,36.385,279.221,38.458,279.221,41.2z"/>
		<path fill="#91204D" d="M372.707,82.083v18.209c0,2.877-0.652,5.033-1.957,6.471s-3.027,2.157-5.166,2.157
			c-2.074,0-3.756-0.72-5.043-2.157s-1.93-3.594-1.93-6.471V78.471c0-3.443-0.119-6.119-0.352-8.025
			c-0.234-1.906-0.871-3.47-1.906-4.69c-1.037-1.221-2.676-1.831-4.916-1.831c-4.482,0-7.434,1.539-8.854,4.615
			c-1.422,3.077-2.133,7.491-2.133,13.243v18.51c0,2.843-0.645,4.991-1.932,6.446c-1.287,1.454-2.984,2.182-5.09,2.182
			c-2.074,0-3.771-0.728-5.092-2.182c-1.322-1.455-1.982-3.604-1.982-6.446V61.115c0-2.575,0.594-4.531,1.781-5.869
			s2.75-2.007,4.689-2.007c1.873,0,3.438,0.627,4.691,1.881s1.881,2.985,1.881,5.192v1.304c2.373-2.842,4.916-4.933,7.625-6.271
			c2.709-1.337,5.719-2.006,9.029-2.006c3.443,0,6.402,0.686,8.879,2.057c2.475,1.371,4.514,3.444,6.119,6.22
			c2.309-2.809,4.781-4.891,7.424-6.245s5.568-2.031,8.779-2.031c3.744,0,6.973,0.735,9.682,2.207s4.73,3.579,6.068,6.32
			c1.172,2.476,1.756,6.371,1.756,11.688v26.736c0,2.877-0.65,5.033-1.955,6.471s-3.027,2.157-5.168,2.157
			c-2.074,0-3.77-0.728-5.092-2.182c-1.32-1.455-1.98-3.604-1.98-6.446V77.268c0-2.942-0.125-5.301-0.377-7.073
			c-0.25-1.772-0.928-3.261-2.031-4.465s-2.775-1.806-5.016-1.806c-1.807,0-3.52,0.535-5.143,1.605
			c-1.621,1.07-2.885,2.508-3.787,4.313C373.209,72.15,372.707,76.231,372.707,82.083z"/>
		<path fill="#91204D" d="M455.354,84.44h-26.787c0.033,3.11,0.66,5.853,1.881,8.227c1.221,2.375,2.842,4.164,4.865,5.368
			c2.023,1.203,4.256,1.806,6.697,1.806c1.639,0,3.135-0.192,4.49-0.577c1.354-0.384,2.666-0.986,3.938-1.806
			c1.27-0.819,2.441-1.697,3.512-2.634c1.07-0.936,2.457-2.207,4.162-3.812c0.703-0.602,1.707-0.902,3.01-0.902
			c1.406,0,2.543,0.385,3.412,1.153c0.869,0.77,1.305,1.856,1.305,3.261c0,1.237-0.486,2.684-1.455,4.339
			c-0.971,1.655-2.434,3.244-4.389,4.766c-1.957,1.522-4.416,2.784-7.375,3.787c-2.959,1.004-6.363,1.505-10.207,1.505
			c-8.797,0-15.635-2.508-20.518-7.524s-7.324-11.821-7.324-20.416c0-4.046,0.602-7.801,1.807-11.262
			c1.203-3.461,2.959-6.429,5.268-8.904c2.307-2.474,5.148-4.372,8.527-5.693c3.377-1.32,7.123-1.981,11.236-1.981
			c5.35,0,9.939,1.129,13.77,3.386c3.828,2.258,6.697,5.176,8.604,8.754c1.906,3.579,2.859,7.224,2.859,10.936
			c0,3.444-0.988,5.677-2.961,6.696C461.707,83.931,458.932,84.44,455.354,84.44z M428.566,76.665h24.83
			c-0.334-4.682-1.598-8.185-3.787-10.509c-2.191-2.324-5.074-3.486-8.652-3.486c-3.412,0-6.213,1.179-8.402,3.536
			C430.363,68.564,429.035,72.051,428.566,76.665z"/>
		<path fill="#91204D" d="M478.178,100.593V41.2c0-2.742,0.609-4.815,1.832-6.221c1.219-1.404,2.867-2.106,4.939-2.106
			c2.074,0,3.746,0.694,5.018,2.082c1.27,1.388,1.906,3.47,1.906,6.245v59.393c0,2.776-0.645,4.858-1.932,6.245
			c-1.287,1.388-2.951,2.082-4.992,2.082c-2.006,0-3.637-0.72-4.891-2.157S478.178,103.269,478.178,100.593z"/>
		<path fill="#91204D" d="M506.018,100.593V41.2c0-2.742,0.609-4.815,1.832-6.221c1.219-1.404,2.867-2.106,4.939-2.106
			c2.074,0,3.746,0.694,5.018,2.082c1.27,1.388,1.906,3.47,1.906,6.245v59.393c0,2.776-0.645,4.858-1.932,6.245
			c-1.287,1.388-2.951,2.082-4.992,2.082c-2.006,0-3.637-0.72-4.891-2.157S506.018,103.269,506.018,100.593z"/>
		<path fill="#91204D" d="M584.406,81.08c0,4.08-0.635,7.842-1.906,11.286c-1.271,3.445-3.109,6.404-5.518,8.879
			c-2.408,2.476-5.285,4.373-8.629,5.693c-3.344,1.321-7.105,1.981-11.285,1.981c-4.148,0-7.877-0.669-11.188-2.007
			c-3.311-1.337-6.178-3.252-8.604-5.743c-2.424-2.491-4.264-5.434-5.518-8.829c-1.254-3.394-1.881-7.147-1.881-11.261
			c0-4.146,0.635-7.942,1.906-11.388c1.271-3.443,3.094-6.387,5.469-8.828c2.373-2.441,5.25-4.322,8.627-5.644
			c3.377-1.32,7.105-1.981,11.188-1.981c4.146,0,7.908,0.669,11.285,2.007c3.379,1.338,6.271,3.244,8.68,5.718
			c2.406,2.476,4.238,5.418,5.492,8.829S584.406,76.966,584.406,81.08z M570.662,81.08c0-5.585-1.229-9.933-3.688-13.043
			c-2.457-3.11-5.76-4.665-9.906-4.665c-2.676,0-5.035,0.694-7.074,2.082s-3.611,3.436-4.715,6.145s-1.656,5.869-1.656,9.481
			c0,3.578,0.545,6.705,1.631,9.38c1.086,2.676,2.643,4.724,4.666,6.146c2.021,1.422,4.404,2.132,7.148,2.132
			c4.146,0,7.449-1.563,9.906-4.69C569.434,90.92,570.662,86.598,570.662,81.08z"/>
		<path fill="#91204D" d="M603.102,61.767l8.93,30.6l8.127-28.442c0.869-2.976,1.512-5.008,1.93-6.095
			c0.418-1.086,1.205-2.123,2.359-3.11c1.152-0.985,2.732-1.479,4.74-1.479c2.039,0,3.637,0.494,4.789,1.479
			c1.154,0.987,1.965,2.057,2.434,3.211c0.469,1.153,1.121,3.152,1.957,5.994l8.125,28.442l9.029-30.6
			c0.604-2.207,1.088-3.804,1.455-4.79c0.369-0.986,0.986-1.856,1.857-2.608c0.869-0.753,2.123-1.129,3.762-1.129
			s3.061,0.569,4.264,1.705c1.203,1.138,1.807,2.476,1.807,4.014c0,1.404-0.52,3.528-1.557,6.37l-11.186,32.807
			c-0.971,2.776-1.723,4.783-2.258,6.02c-0.535,1.238-1.379,2.342-2.533,3.312c-1.154,0.969-2.734,1.454-4.74,1.454
			c-2.074,0-3.703-0.519-4.891-1.555s-2.064-2.308-2.633-3.812c-0.57-1.505-1.188-3.461-1.857-5.869l-7.824-26.687l-7.576,26.687
			c-1.002,3.712-2.09,6.514-3.26,8.402s-3.229,2.834-6.17,2.834c-1.506,0-2.783-0.293-3.838-0.878
			c-1.053-0.584-1.932-1.421-2.633-2.508c-0.703-1.087-1.322-2.374-1.855-3.862c-0.537-1.488-0.953-2.667-1.256-3.537
			l-11.086-32.807c-1.104-3.076-1.654-5.199-1.654-6.37c0-1.472,0.584-2.792,1.756-3.963c1.17-1.171,2.607-1.756,4.314-1.756
			c2.273,0,3.812,0.645,4.613,1.932C601.346,56.458,602.199,58.657,603.102,61.767z"/>
	</g>
</g>
<g id="Layer_2" display="none">
</g>
</svg>
