<?xml version="1.0" encoding="utf-8"?>
<!-- Generator: Adobe Illustrator 16.0.0, SVG Export Plug-In . SVG Version: 6.00 Build 0)  -->
<!DOCTYPE svg PUBLIC "-//W3C//DTD SVG 1.1//EN" "http://www.w3.org/Graphics/SVG/1.1/DTD/svg11.dtd">
<svg version="1.1" xmlns="http://www.w3.org/2000/svg" xmlns:xlink="http://www.w3.org/1999/xlink" x="0px" y="0px"
	 width="317.521px" height="317.304px" viewBox="0 0 317.521 317.304" enable-background="new 0 0 317.521 317.304"
	 xml:space="preserve">
<g id="Layer_1">
</g>
<g id="Layer_3">
</g>
<g id="Layer_4">
	<g>
		<linearGradient id="SVGID_1_" gradientUnits="userSpaceOnUse" x1="158.7607" y1="233.9326" x2="158.7607" y2="46.9802">
			<stop  offset="0" style="stop-color:#E8BE55"/>
			<stop  offset="1" style="stop-color:#E48449"/>
		</linearGradient>
		<path fill="url(#SVGID_1_)" d="M250.097,161.642c-0.795-4.09-1.88-7.653-3.31-10.673l-0.035-0.074l-0.035-0.077
			c-2.007-4.11-4.559-7.756-7.628-10.92h0.01c-0.01-0.004-0.014-0.009-0.022-0.016c-2.967-3.056-7.904-6.754-13.258-9.655
			c-16.002-8.682-20.229-16.386-20.464-35.181c-0.192-15.329,12.741-27.175,18.32-36.411c7.792-12.895,6.506-27.982,6.506-37.356
			c0-7.799-2.216-15.181-6.091-21.853l-0.064,0.135c0.1,1.314,0.254,2.621,0.254,3.954c0,17.184-14.065,33.917-23.948,40.575
			c-12.425,8.369-32.257,17.663-40.507,27.468c-9.439,11.206-11.422,19.875-18.426,38.963c-3.05,8.308-6.634,14.453-10.612,18.404
			c-5.15,5.114-10.956,6.551-17.108,4.215c-1.778-0.675-2.627-2.106-2.848-4.153c-0.495-4.654,2.294-12.529,5.055-22.191
			c3.567-12.549-2.678-23.099-9.188-34.516c1.513,20.065-8.882,38.918-24.326,53.016c-2.956,2.694-5.4,6.41-7.774,9.864
			c-5.584,6.707-9.312,14.235-9.312,40.506v93.475c0,25.812,20.928,46.736,46.735,46.736h93.482
			c25.81,0,46.734-20.925,46.734-46.736v-93.475C252.236,170.78,251.483,166.07,250.097,161.642z"/>
		<path fill="#FAF4EA" d="M234.067,260.057c0,20.796-16.856,37.651-37.652,37.651h-75.31c-20.79,0-37.65-16.855-37.65-37.651
			v-75.309c0-20.795,16.86-37.653,37.65-37.653h75.31c20.796,0,37.652,16.858,37.652,37.653V260.057z"/>
		<g>
			<path fill="#91204D" d="M204.024,185.564c-3.903-2.121-8.563-3.181-13.964-3.181c-4.629,0-8.853,0.974-12.663,2.927
				c-3.817,1.957-7.384,4.96-10.71,9.013c-2.317-4.005-5.258-6.995-8.831-8.975s-7.841-2.965-12.808-2.965
				c-4.779,0-9.119,0.964-13.029,2.892c-3.909,1.932-7.573,4.947-10.994,9.048v-1.883c0-3.185-0.91-5.682-2.72-7.487
				c-1.807-1.811-4.059-2.716-6.769-2.716c-2.79,0-5.052,0.963-6.761,2.896c-1.712,1.928-2.571,4.751-2.571,8.466v56.518
				c0,4.103,0.953,7.201,2.858,9.301c1.903,2.097,4.354,3.146,7.351,3.146c3.033,0,5.485-1.05,7.34-3.146
				c1.854-2.1,2.787-5.198,2.787-9.301v-26.703c0-8.298,1.023-14.663,3.077-19.103c2.049-4.44,6.31-6.66,12.774-6.66
				c3.229,0,5.593,0.879,7.091,2.643c1.492,1.76,2.407,4.018,2.748,6.769c0.336,2.747,0.507,6.607,0.507,11.576v31.479
				c0,4.15,0.924,7.263,2.785,9.337c1.855,2.074,4.282,3.11,7.273,3.11c3.089,0,5.573-1.036,7.455-3.11
				c1.883-2.074,2.818-5.187,2.818-9.337V223.85c0-8.446,0.723-14.331,2.171-17.659c1.306-2.606,3.127-4.678,5.468-6.223
				c2.341-1.542,4.812-2.317,7.417-2.317c3.23,0,5.643,0.869,7.235,2.606c1.594,1.736,2.571,3.882,2.933,6.439
				c0.357,2.561,0.54,5.961,0.54,10.203v33.217c0,4.103,0.958,7.201,2.858,9.301c1.909,2.097,4.354,3.146,7.351,3.146
				c3.084,0,5.568-1.036,7.449-3.11c1.883-2.074,2.825-5.187,2.825-9.337v-38.57c0-7.673-0.841-13.291-2.532-16.862
				C210.851,190.731,207.935,187.69,204.024,185.564z"/>
		</g>
	</g>
</g>
<g id="Layer_2" display="none">
</g>
</svg>
